<svg width="170" height="170" viewBox="0 0 170 170" fill="none" xmlns="http://www.w3.org/2000/svg">
<circle cx="85" cy="85" r="85" fill="#002244"/>
<path d="M104.971 116H65.0288C59.5092 116 55 111.491 55 105.971V66.0287C55 60.5092 59.5092 56 65.0288 56H104.971C110.491 56 115 60.5092 115 66.0287V105.971C115 111.515 110.515 116 104.971 116Z" fill="white"/>
<path d="M85.0127 101.412C80.8977 101.412 77.0291 99.8105 74.1215 96.9029C71.2139 93.9953 69.6123 90.1267 69.6123 86.0117C69.6123 81.8967 71.2139 78.0282 74.1215 75.1206C77.0291 72.213 80.8977 70.6113 85.0127 70.6113C89.1277 70.6113 92.9963 72.213 95.9039 75.1206C98.8115 78.0282 100.413 81.8967 100.413 86.0117C100.413 90.1267 98.8115 93.9953 95.9039 96.9029C92.9716 99.8105 89.1277 101.412 85.0127 101.412ZM85.0127 73.8885C78.3351 73.8885 72.8895 79.3095 72.8895 86.0117C72.8895 92.6894 78.3105 98.1349 85.0127 98.1349C91.6903 98.1349 97.1359 92.714 97.1359 86.0117C97.1113 79.3341 91.6903 73.8885 85.0127 73.8885Z" fill="#002244"/>
<path d="M103.415 70.1053C105.048 70.1053 106.372 68.7814 106.372 67.1484C106.372 65.5153 105.048 64.1914 103.415 64.1914C101.782 64.1914 100.458 65.5153 100.458 67.1484C100.458 68.7814 101.782 70.1053 103.415 70.1053Z" fill="#002244"/>
</svg>
