<svg width="45" height="46" viewBox="0 0 45 46" fill="none" xmlns="http://www.w3.org/2000/svg">
<circle cx="22.5" cy="23" r="22.5" fill="#002244"/>
<path d="M31.1345 19.331C30.6636 18.2906 29.9878 17.3566 29.1297 16.5516C28.2715 15.7542 27.2767 15.1239 26.168 14.6835C25.0213 14.2278 23.8062 14 22.5532 14C21.3002 14 20.0852 14.2278 18.9385 14.6835C17.8297 15.1239 16.8349 15.7466 15.9768 16.5516C15.1187 17.3566 14.4428 18.2906 13.972 19.331C13.486 20.4094 13.2354 21.5636 13.2354 22.7483C13.2354 24.8215 14.0099 26.8111 15.43 28.3907L14.6706 32.5294L18.7106 30.7296C19.9181 31.246 21.2015 31.5042 22.5456 31.5042C23.7986 31.5042 25.0137 31.2764 26.1604 30.8208C27.2691 30.3803 28.2639 29.7576 29.1221 28.9526C29.9802 28.1477 30.656 27.2136 31.1269 26.1732C31.6129 25.0949 31.8635 23.9406 31.8635 22.7559C31.8711 21.5636 31.6205 20.4169 31.1345 19.331Z" fill="white"/>
<path d="M26.3353 24.4948C25.9404 24.2973 25.6518 24.1758 25.4468 24.0999C25.3177 24.0543 25.0139 23.9176 24.9076 24.0012C24.5735 24.2746 24.2165 25.0491 23.8368 25.1934C22.8952 25.0112 22.0219 24.3657 21.3384 23.705C21.0346 23.4164 20.4727 22.5963 20.3512 22.376C20.3284 22.1482 20.7385 21.8445 20.8296 21.6698C21.3004 21.1382 20.9435 20.8041 20.8828 20.5839C20.7764 20.356 20.5942 19.946 20.4347 19.6118C20.298 19.3916 20.2676 19.0651 20.0246 18.9435C18.9918 18.412 18.3995 19.4751 18.1565 20.0295C16.6909 23.5607 25.4999 30.2814 27.2921 25.6491C27.3832 25.2466 27.3453 25.0947 27.2086 24.9124C26.9352 24.7226 26.6162 24.6391 26.3353 24.4948Z" fill="#002244"/>
</svg>
